<svg width="17" height="17" viewBox="0 0 17 17" fill="none" xmlns="http://www.w3.org/2000/svg">
<path d="M8.46177 15.906C10.432 15.906 12.3214 15.1233 13.7146 13.7302C15.1077 12.3371 15.8903 10.4476 15.8903 8.4774C15.8903 6.50722 15.1077 4.61773 13.7146 3.22461C12.3214 1.83148 10.432 1.04883 8.46177 1.04883C6.4916 1.04883 4.60211 1.83148 3.20898 3.22461C1.81585 4.61773 1.0332 6.50722 1.0332 8.4774C1.0332 10.4476 1.81585 12.3371 3.20898 13.7302C4.60211 15.1233 6.4916 15.906 8.46177 15.906Z" stroke="white" stroke-linecap="round" stroke-linejoin="round"/>
<path d="M6.74805 11.906H10.1766" stroke="white" stroke-linecap="round" stroke-linejoin="round"/>
<path d="M8.46122 11.906V7.90601H7.31836" stroke="white" stroke-linecap="round" stroke-linejoin="round"/>
<path d="M8.4615 5.33461C8.38572 5.33461 8.31305 5.30451 8.25946 5.25093C8.20588 5.19735 8.17578 5.12467 8.17578 5.0489C8.17578 4.97312 8.20588 4.90045 8.25946 4.84687C8.31305 4.79329 8.38572 4.76318 8.4615 4.76318" stroke="white" stroke-linecap="round" stroke-linejoin="round"/>
<path d="M8.46289 5.33461C8.53867 5.33461 8.61134 5.30451 8.66492 5.25093C8.7185 5.19735 8.7486 5.12467 8.7486 5.0489C8.7486 4.97312 8.7185 4.90045 8.66492 4.84687C8.61134 4.79329 8.53867 4.76318 8.46289 4.76318" stroke="white" stroke-linecap="round" stroke-linejoin="round"/>
</svg>
